<svg width="106" height="99" viewBox="0 0 106 99" fill="none" xmlns="http://www.w3.org/2000/svg">
<g clip-path="url(#clip0_46_484)">
<path d="M18.1057 2.00206L18.1056 2.00201C18.3312 1.63643 18.7488 1.27218 19.1459 1.07636C19.2459 1.03198 19.3913 0.97345 20.0427 0.923973C20.7372 0.871216 21.9338 0.83342 24.1373 0.807289C28.5345 0.755135 36.86 0.749901 53 0.749901C69.14 0.749901 77.4655 0.755135 81.8627 0.807289C84.0662 0.83342 85.2628 0.871216 85.9574 0.923973C86.6089 0.973465 86.7542 1.03201 86.8542 1.0764C87.2513 1.27222 87.6689 1.63644 87.8944 2.00201L87.901 2.01269L18.1057 2.00206ZM18.1057 2.00206L18.0989 2.01263C18.099 2.01238 18.099 2.01239 18.0989 2.01269C18.0984 2.01341 18.0968 2.01591 18.0939 2.02073L18.0784 2.04665C18.0653 2.06886 18.0481 2.09832 18.0266 2.13543C17.9838 2.20956 17.9267 2.30974 17.8558 2.43504C17.7141 2.68542 17.5199 3.03141 17.2804 3.46019C16.8015 4.31749 16.1433 5.50215 15.3647 6.90699C13.8078 9.71647 11.7709 13.4043 9.72817 17.11C5.64494 24.5172 1.55484 31.9654 1.20672 32.6467C0.798676 33.4773 0.86502 34.638 1.43698 35.5421C1.43699 35.5421 1.44058 35.5476 1.4497 35.5606C1.4594 35.5744 1.47262 35.5929 1.48984 35.6164C1.52432 35.6636 1.57083 35.7258 1.62986 35.8036C1.74777 35.959 1.91006 36.1692 2.11471 36.4317C2.52371 36.9563 3.09656 37.6828 3.81049 38.5829C5.23807 40.3828 7.22588 42.8722 9.58675 45.8191C14.3083 51.7127 20.5197 59.4333 26.7203 67.1216C32.921 74.81 39.1104 82.4654 43.7882 88.2284C46.1272 91.1101 48.0877 93.518 49.4824 95.22C50.1799 96.0713 50.7349 96.7447 51.1246 97.2122C51.3197 97.4462 51.4715 97.6264 51.5784 97.7508C51.6281 97.8086 51.6658 97.8517 51.6923 97.8813L18.1057 2.00206ZM51.7246 97.9163C51.7246 97.9162 51.7236 97.9152 51.7219 97.9134C51.7237 97.9154 51.7246 97.9163 51.7246 97.9163ZM40.2665 7.16856L40.2568 7.19791L40.2448 7.22636C40.2461 7.22321 40.2455 7.22474 40.2421 7.23358C40.2385 7.24297 40.2317 7.2606 40.2206 7.28966C40.2022 7.33766 40.1765 7.40546 40.1437 7.49246C40.078 7.66631 39.9847 7.91428 39.8666 8.2285C39.6901 8.69821 39.4587 9.31487 39.1824 10.0512L38.8874 10.837C38.0703 13.0144 36.9565 15.9805 35.7396 19.2078C35.7396 19.2079 35.7396 19.2081 35.7395 19.2082L31.3267 30.966L31.1441 31.4524H30.6245H19.8389H9.05331H7.82326L8.38658 30.359L8.63403 29.8786L8.63678 29.8733C9.15366 28.8892 20.8553 7.63136 21.2595 6.96348L21.2629 6.95792L21.6754 6.28957L21.8951 5.93345H22.3136H30.9751C34.3969 5.93345 36.5682 5.94906 37.8779 5.98862C38.5277 6.00824 38.9897 6.03432 39.2928 6.07107C39.434 6.0882 39.5936 6.11327 39.731 6.16116C39.7898 6.18166 39.9302 6.23416 40.0582 6.35515C40.1296 6.4226 40.219 6.53202 40.2691 6.68972C40.3223 6.85706 40.3138 7.0247 40.2665 7.16856ZM68.9417 30.333L69.3217 31.3391L68.2462 31.348L60.6159 31.4106L60.6135 31.4107C56.4246 31.4315 49.5754 31.4315 45.3865 31.4107L45.3841 31.4106L37.7538 31.348L36.6772 31.3391L37.0586 30.3323L41.409 18.8475C41.4091 18.8472 41.4092 18.8469 41.4093 18.8465C43.6733 12.8052 45.6366 7.63942 45.9005 6.94514L45.9265 6.87668L45.9293 6.86933L45.9322 6.86205L46.1178 6.40255L46.3087 5.93005L46.8183 5.93346L53.0463 5.97523L53.0488 5.97526L59.2768 6.03792L59.7905 6.04308L59.9713 6.52399L64.446 18.428L64.4464 18.429L68.9417 30.333ZM96.7337 28.7048L96.7384 28.7129L96.7428 28.7212L97.6089 30.3503L98.1949 31.4524H96.9467H86.1611H75.3755H74.8559L74.6733 30.966L70.2605 19.2082C69.0435 15.9807 67.9298 13.0145 67.1126 10.837C66.7039 9.74814 66.3695 8.85684 66.1334 8.2285C66.0154 7.91429 65.922 7.66631 65.8563 7.49246C65.8235 7.40546 65.7978 7.33766 65.7794 7.28966C65.7579 7.23325 65.7525 7.21989 65.7552 7.22636L65.7388 7.18752L65.7268 7.14709C65.6359 6.84026 65.7449 6.55759 65.9115 6.38148C66.0387 6.24699 66.1836 6.18672 66.2486 6.1621C66.3933 6.10725 66.5595 6.08054 66.7003 6.06313C67.0045 6.02551 67.4671 6.00156 68.1163 5.98589C69.4263 5.95423 71.6085 5.95436 75.0707 5.97523L75.0715 5.97524L83.7949 6.0379L84.2345 6.04105L84.4465 6.42617L90.137 16.7623C90.1371 16.7625 90.1372 16.7626 90.1372 16.7628C92.0405 20.1895 93.864 23.5014 95.1217 25.7856C95.953 27.2954 96.5371 28.3562 96.7337 28.7048ZM38.0606 58.0399L38.0608 58.0403C39.9168 63.7527 41.6028 68.9485 42.8223 72.7189C43.432 74.6041 43.9253 76.1334 44.2649 77.1931C44.4346 77.7227 44.5664 78.1361 44.6551 78.4182C44.6994 78.5588 44.7337 78.669 44.7568 78.7454C44.7682 78.7828 44.7781 78.8163 44.7855 78.8426C44.7868 78.847 44.7882 78.8523 44.7899 78.8583C44.7926 78.8684 44.7957 78.8803 44.7987 78.8927C44.8005 78.9002 44.806 78.9235 44.8107 78.9525C44.8126 78.964 44.8185 79.0009 44.8201 79.0484C44.8205 79.075 44.8172 79.1444 44.812 79.187C44.7963 79.2634 44.7024 79.4785 44.6041 79.6015L44.0704 79.0746L44.6041 79.6016C44.2449 79.8041 43.7391 79.7476 43.6511 79.6966C43.6204 79.6748 43.5763 79.6392 43.5617 79.6261C43.5388 79.6052 43.5215 79.5866 43.5165 79.5813C43.5024 79.5662 43.4888 79.5508 43.4796 79.5402C43.4591 79.5166 43.4324 79.485 43.4015 79.448C43.3388 79.373 43.2479 79.2628 43.1317 79.1212C42.8989 78.8372 42.5591 78.4203 42.1278 77.8892C41.2649 76.8269 40.0328 75.3048 38.5503 73.4704C35.5851 69.8016 31.6169 64.8819 27.5941 59.8887C19.5711 49.9303 11.318 39.6635 10.3842 38.4586L9.8955 37.8605L8.88946 36.6294L10.4794 36.636L20.5432 36.6778L20.5448 36.6778L30.5879 36.7404L31.129 36.7438L31.2964 37.2583L38.0606 58.0399ZM67.6551 42.2514L67.6549 42.252C65.4477 49.1256 61.9826 59.7686 59.0591 68.6927C57.5974 73.1549 56.2708 77.188 55.3044 80.106C54.8213 81.5648 54.4278 82.7459 54.1524 83.5628C54.0148 83.9709 53.906 84.2902 53.8298 84.5084C53.7921 84.6168 53.7609 84.7044 53.7377 84.7667C53.7267 84.7964 53.7145 84.8285 53.7028 84.8565C53.698 84.868 53.6869 84.8942 53.672 84.9235C53.6663 84.9347 53.6476 84.9715 53.6181 85.0141C53.6007 85.0382 53.5503 85.0984 53.5156 85.1334C53.4442 85.193 53.1891 85.3143 53 85.3385C52.8393 85.3211 52.6056 85.2266 52.5308 85.1738C52.4905 85.1392 52.4307 85.0772 52.4094 85.0514C52.3721 85.004 52.3487 84.9623 52.3413 84.9489C52.3225 84.9152 52.3094 84.8856 52.3044 84.8743C52.2919 84.8458 52.2799 84.8153 52.2704 84.7905C52.2501 84.7375 52.2238 84.6649 52.1929 84.5776C52.1304 84.401 52.0416 84.1427 51.9293 83.8116C51.7042 83.1483 51.3812 82.1817 50.978 80.9659C50.1713 78.5339 49.0419 75.0997 47.7296 71.0891C45.1051 63.068 41.7485 52.7389 38.7784 43.506C38.7784 43.5059 38.7783 43.5057 38.7782 43.5055L36.8612 37.6182L36.5413 36.636H37.5743H53H68.4257H69.4534L69.14 37.6147L67.6551 42.2514ZM62.3487 79.6967C62.2606 79.7477 61.7549 79.804 61.3959 79.6016C61.3959 79.6016 61.3959 79.6016 61.3959 79.6015C61.3959 79.6015 61.3959 79.6015 61.3959 79.6015C61.2289 79.3423 61.184 78.9929 61.1903 78.948C61.1917 78.9402 61.1936 78.9306 61.1955 78.9216C61.1977 78.9108 61.1999 78.9008 61.2011 78.8957C61.2048 78.8805 61.2083 78.8678 61.2097 78.8631C61.2131 78.8509 61.217 78.8379 61.2203 78.827C61.2238 78.8153 61.2281 78.8013 61.2331 78.7854C61.2379 78.7697 61.2434 78.7521 61.2495 78.7329C61.2741 78.6543 61.3106 78.5392 61.3579 78.3909C61.4526 78.094 61.592 77.6595 61.7697 77.1072C62.1251 76.0024 62.6343 74.4244 63.2472 72.5279C64.4731 68.7348 66.1139 63.6671 67.769 58.5629C71.0636 48.4018 74.4266 38.0581 74.6685 37.3864C74.7741 37.0863 75.0188 36.9615 75.0785 36.9317C75.1739 36.8841 75.2676 36.858 75.3318 36.8426C75.4664 36.8103 75.6311 36.7886 75.8104 36.7715C76.1776 36.7366 76.7281 36.7107 77.5012 36.691C79.0536 36.6516 81.5736 36.636 85.4806 36.636H95.5031H97.043L96.0936 37.8484L95.6203 38.4528C95.6203 38.4528 95.6202 38.4529 95.6202 38.4529C94.6866 39.6505 86.4165 49.9387 78.3827 59.9122C74.3638 64.9015 70.4014 69.8152 67.4411 73.4792C65.961 75.3111 64.7311 76.8309 63.8698 77.8917C63.4392 78.422 63.1001 78.8383 62.8677 79.1218C62.7517 79.2632 62.661 79.3732 62.5984 79.4481C62.5676 79.485 62.5408 79.5166 62.5204 79.5402C62.5158 79.5455 62.51 79.5521 62.5036 79.5592C62.4974 79.5663 62.4905 79.5738 62.4835 79.5813C62.4786 79.5866 62.4612 79.6052 62.4382 79.6262C62.4236 79.6393 62.3795 79.6749 62.3487 79.6967Z" fill="#CCA870" stroke="white" stroke-width="1.5"/>
</g>
<defs>
<clipPath id="clip0_46_484">
<rect width="106" height="99" fill="white"/>
</clipPath>
</defs>
</svg>
